# AST/ASF file generated using VICON BodyLanguage
# -----------------------------------------------
:version 1.10
:name VICON
:units
  mass 1.0
  length 0.45
  angle deg
:documentation
   .ast/.asf automatically generated from VICON data using
   VICON BodyBuilder and BodyLanguage model FoxedUp or BRILLIANT.MOD
:root
   order TX TY TZ RX RY RZ
   axis XYZ
   position 0 0 0  
   orientation 0 0 0 
:bonedata
  begin
     id 1 
     name lhipjoint
     direction 0.650112 -0.723553 0.232005 
     length 2.45805 
     axis 0 0 0  XYZ
  end
  begin
     id 2 
     name lfemur
     direction 0.34202 -0.939693 0  
     length 7.00073  
     axis 0 0 20  XYZ
    dof rx ry rz
    limits (-160.0 20.0)
           (-70.0 70.0)
           (-60.0 70.0)
  end
  begin
     id 3 
     name ltibia
     direction 0.34202 -0.939693 0   
     length 7.8748   
     axis 0 0 20   XYZ
    dof rx
    limits (-10.0 170.0)
  end
  begin
     id 4 
     name lfoot
     direction 0.0542825 -0.14914 0.987325   
     length 1.75978   
     axis -90 7.62852e-016 20   XYZ
    dof rx rz
    limits (-45.0 90.0)
           (-70.0 20.0)
  end
  begin
     id 5 
     name ltoes
     direction 1.53509e-011 -4.21906e-011 1   
     length 0.893912   
     axis -90 7.62852e-016 20   XYZ
    dof rx
    limits (-90.0 20.0)
  end
  begin
     id 6 
     name rhipjoint
     direction -0.637897 -0.733345 0.235145   
     length 2.42522  
     axis 0 0 0  XYZ 
  end
  begin
     id 7 
     name rfemur
     direction -0.34202 -0.939693 0   
     length 7.02549   
     axis 0 0 -20   XYZ
    dof rx ry rz
    limits (-160.0 20.0)
           (-70.0 70.0)
           (-70.0 60.0)
  end
  begin
     id 8 
     name rtibia
     direction -0.34202 -0.939693 0   
     length 7.71512   
     axis 0 0 -20   XYZ
    dof rx
    limits (-10.0 170.0)
 end
 begin
     id 9 
     name rfoot
     direction -0.0822618 -0.226012 0.970645   
     length 1.90014  
     axis -90 -7.62852e-016 -20   XYZ
    dof rx rz
    limits (-45.0 90.0)
           (-20.0 70.0)
  end
  begin
     id 10 
     name rtoes
     direction -1.53542e-011 -4.21872e-011 1   
     length 0.957341   
     axis -90 -7.62852e-016 -20   XYZ
    dof rx
    limits (-90.0 20.0)
  end
  begin
     id 11 
     name lowerback
     direction -0.0022947 0.999774 -0.0211557   
     length 1.89909   
     axis 0 0 0   XYZ
    dof rx ry rz
    limits (-20.0 45.0)
           (-30.0 30.0)
           (-30.0 30.0)
  end
  begin
     id 12 
     name upperback
     direction 0.0107737 0.998635 0.0511027   
     length 1.8853   
     axis 0 0 0   XYZ
    dof rx ry rz
    limits (-20.0 45.0)
           (-30.0 30.0)
           (-30.0 30.0)
  end
  begin
     id 13 
     name thorax
     direction 0.011824 0.998136 0.0598754   
     length 1.88911   
     axis 0 0 0   XYZ
    dof rx ry rz
    limits (-20.0 45.0)
           (-30.0 30.0)
           (-30.0 30.0)
  end
  begin
     id 14 
     name lowerneck
     direction -0.0685355 0.990319 0.120714   
     length 1.91222   
     axis 0 0 0   XYZ
    dof rx ry rz
    limits (-20.0 45.0)
           (-30.0 30.0)
           (-30.0 30.0)
  end
  begin
     id 15 
     name upperneck
     direction 0.0886204 0.955665 -0.280805   
     length 1.92526   
     axis 0 0 0   XYZ
    dof rx ry rz
    limits (-20.0 45.0)
           (-30.0 30.0)
           (-30.0 30.0)
  end
  begin
     id 16
     name head
     direction 0.0233423 0.993502 -0.111393  
     length 1.96056  
     axis 0 0 0   XYZ
    dof rx ry rz
    limits (-20.0 45.0)
           (-30.0 30.0)
           (-30.0 30.0)
  end
  begin
     id 17 
     name lclavicle
     direction 0.941873 0.32922 0.0670041  
     length 3.31705  
     axis 0 0 0   XYZ
    dof ry rz
    limits (-20.0 10.0)
           (0.0 20.0)
  end
  begin
     id 18 
     name lhumerus
     direction 1 -4.4898e-011 3.38707e-028   
     length 5.29277   
     axis 180 -30 -90   XYZ
    dof rx ry rz
    limits (-60.0 90.0)
           (-90.0 90.0)
           (-90.0 90.0)
  end
  begin
     id 19
     name lradius
     direction 1 -4.48952e-011 1.63213e-028   
     length 2.85226   
     axis 180 -30 -90   XYZ
    dof rx
    limits (-10.0 170.0)
  end
  begin
     id 20
     name lwrist
     direction 1 -4.49001e-011 1.27856e-027   
     length 1.42613   
     axis -1.61767e-015 90 90   XYZ
    dof ry
    limits (-180.0 0.0)
 end
  begin
     id 21 
     name lhand
     direction 1 -4.48976e-011 2.55931e-027   
     length 0.602097   
     axis -1.63363e-015 90 90   XYZ
    dof rx rz
    limits (-90.0 90.0)
           (-45.0 45.0)
  end
  begin
     id 22 
     name lfingers
     direction 1 -4.48986e-011 5.11684e-027   
     length 0.485426   
     axis -3.26723e-015 90 90   XYZ
    dof rx
    limits (0.0 90.0)
  end
  begin
     id 23
     name lthumb
     direction 0.707107 -6.34915e-011 0.707107   
     length 0.696978   
     axis -90 45 -2.25915e-014   XYZ
    dof rx rz
    limits (-45.0 45.0)
           (-45.0 45.0)
  end
  begin
     id 24 
     name rclavicle
     direction -0.939974 0.327078 0.0973096   
     length 3.10337  
     axis 0 0 0   XYZ 
    dof ry rz
    limits (-10.0 20.0)
           (-20.0 0.0)
  end
  begin
     id 25 
     name rhumerus
     direction -1 -4.48975e-011 1.83745e-027  
     length 5.13304   
     axis 180 30 90   XYZ
    dof rx ry rz
    limits (-90.0 60.0)
           (-90.0 90.0)
           (-90.0 90.0)
  end
  begin
     id 26 
     name rradius
     direction -1 -4.48977e-011 7.1775e-029   
     length 2.74305   
     axis 180 30 90   XYZ
    dof rx
    limits (-10.0 170.0)
  end
  begin
     id 27 
     name rwrist
     direction -1 -4.48977e-011 1.27963e-027   
     length 1.37152   
     axis -1.61767e-015 -90 -90   XYZ
    dof ry
    limits (-180.0 0.0)
  end
  begin
     id 28
     name rhand
     direction -1 -4.4888e-011 2.56782e-027   
     length 0.767976   
     axis -1.63363e-015 -90 -90   XYZ
    dof rx rz
    limits (-90.0 90.0)
           (-45.0 45.0)
  end
  begin
     id 29
     name rfingers
     direction -1 -4.48947e-011 5.12384e-027   
     length 0.619162   
     axis -3.26723e-015 -90 -90   XYZ
    dof rx
    limits (0.0 90.0)
  end
  begin
     id 30
     name rthumb
     direction -0.707107 -6.34857e-011 0.707107   
     length 0.888997   
     axis -90 -45 2.25915e-014   XYZ
    dof rx rz
    limits (-45.0 45.0)
           (-45.0 45.0)
  end
:hierarchy
  begin
    root lhipjoint rhipjoint lowerback
    lhipjoint lfemur
    lfemur ltibia
    ltibia lfoot
    lfoot ltoes
    rhipjoint rfemur
    rfemur rtibia
    rtibia rfoot
    rfoot rtoes
    lowerback upperback
    upperback thorax
    thorax lowerneck lclavicle rclavicle
    lowerneck upperneck
    upperneck head
    lclavicle lhumerus
    lhumerus lradius
    lradius lwrist
    lwrist lhand lthumb
    lhand lfingers
    rclavicle rhumerus
    rhumerus rradius
    rradius rwrist
    rwrist rhand rthumb
    rhand rfingers
  end

#!OML:ASF F:\VICON\USERDATA\INSTALL\rory3\rory3.ASF
:FULLY-SPECIFIED
:DEGREES
395
root 0.184588 17.482 0.239823 3.82813 3.17193 0.0689528
lowerback -2.18809 -0.767343 -2.32919
upperback -3.61155 -0.985665 1.38238
thorax -2.42113 -0.413614 2.72658
lowerneck -12.8431 -11.7306 -17.5721
upperneck 22.1055 -15.9697 13.1424
head 11.9141 -7.43876 5.21071
rclavicle -1.39149e-015 -7.7526e-015
rhumerus 23.0833 51.4548 -48.0438
rradius 118.066
rwrist -6.53947
rhand -15.3479 18.7723
rfingers 7.12502
rthumb 10.8292 -10.9285
lclavicle -1.39149e-015 -7.7526e-015
lhumerus 61.0445 -61.2715 3.98891
lradius 90.3771
lwrist 25.8831
lhand 3.38312 20.4522
lfingers 7.12502
lthumb 28.8266 48.2456
rfemur 0 0 0
rtibia 0
rfoot 0 0
rtoes 0
lfemur -5.73348 -19.617 -17.7047
ltibia 13.503
lfoot -11.4683 12.5786
ltoes -19.2825
396
root 0.184655 17.4826 0.239086 3.84184 2.9457 -0.00361775
lowerback -2.21409 -0.722394 -2.17923
upperback -3.59862 -0.926684 1.34411
thorax -2.3993 -0.388944 2.60239
lowerneck -12.8175 -11.6826 -17.3646
upperneck 21.9831 -15.9423 13.1605
head 11.8385 -7.41001 5.19018
rclavicle 9.19379e-016 3.77691e-015
rhumerus 22.2089 49.151 -50.0973
rradius 116.963
rwrist -6.86635
rhand -15.3078 18.4521
rfingers 7.12502
rthumb 10.8679 -11.2467
lclavicle 9.19379e-016 3.77691e-015
lhumerus 65.7954 -62.5642 -1.9772
lradius 91.8219
lwrist 26.8392
lhand 3.54553 20.5323
lfingers 7.12502
lthumb 28.9817 48.2992
rfemur 0 0 0
rtibia 0
rfoot 0 0
rtoes 0
lfemur -5.7245 -19.3882 -17.664
ltibia 13.5574
lfoot -11.5547 12.6232
ltoes -19.4434
397
root 0.185917 17.4823 0.238016 3.84662 2.70128 -0.109054
lowerback -2.25614 -0.839774 -2.12191
upperback -3.53505 -1.07949 1.55337
thorax -2.298 -0.466243 2.78404
lowerneck -13.1311 -11.5576 -17.6193
upperneck 22.0115 -15.6686 13.236
head 11.8938 -7.28565 5.30049
rclavicle -2.01021e-014 2.22639e-014
rhumerus 22.3034 47.4976 -51.0799
rradius 115.66
rwrist -7.09618
rhand -15.7887 17.7133
rfingers 7.12502
rthumb 10.404 -12.0093
lclavicle -2.01021e-014 2.22639e-014
lhumerus 69.0382 -63.6169 -6.21978
lradius 93.1662
lwrist 26.8854
lhand 4.42917 20.1018
lfingers 7.12502
lthumb 29.8254 47.7205
rfemur 0 0 0
rtibia 0
rfoot 0 0
rtoes 0
lfemur -5.69817 -19.1396 -17.5965
ltibia 13.6033
lfoot -11.5394 12.7048
ltoes -20.0597
398
root 0.187122 17.4816 0.235713 3.83622 2.42066 -0.179207
lowerback -2.33254 -0.881078 -2.07716
upperback -3.43379 -1.13231 1.66018
thorax -2.14601 -0.49582 2.86619
lowerneck -13.3252 -11.4902 -17.8012
upperneck 21.9515 -15.5447 13.4509
head 11.9253 -7.21442 5.4273
rclavicle -1.19271e-014 -2.38542e-015
rhumerus 22.2208 45.827 -52.0707
rradius 114.09
rwrist -7.06162
rhand -15.9672 17.1552
rfingers 7.12502
rthumb 10.2318 -12.576
lclavicle -1.19271e-014 -2.38542e-015
lhumerus 72.6662 -64.3878 -10.6546
lradius 94.6235
lwrist 26.2981
lhand 5.95738 19.2549
lfingers 7.12502
lthumb 31.2827 46.6021
rfemur 0 0 0
rtibia 0
rfoot 0 0
rtoes 0
lfemur -5.6336 -18.8594 -17.585
ltibia 13.6267
lfoot -11.6034 12.6488
ltoes -19.816
399
root 0.188324 17.4823 0.23496 3.84726 2.16533 -0.111772
lowerback -2.52087 -0.804485 -2.11417
upperback -3.32055 -1.02848 1.56356
thorax -1.93127 -0.448707 2.78373
lowerneck -13.2557 -11.5107 -17.6977
upperneck 21.7428 -15.6578 13.7071
head 11.8685 -7.23514 5.48554
rclavicle 6.36111e-015 4.77083e-015
rhumerus 21.7153 44.0295 -53.2698
rradius 112.311
rwrist -6.82592
rhand -15.6562 16.5722
rfingers 7.12502
rthumb 10.5318 -13.1439
lclavicle 6.36111e-015 4.77083e-015
lhumerus 77.0504 -64.8906 -15.6497
lradius 96.4639
lwrist 25.5822
lhand 7.40366 18.7614
lfingers 7.12502
lthumb 32.6598 45.8328
rfemur 0 0 0
rtibia 0
rfoot 0 0
rtoes 0
lfemur -5.5942 -18.6142 -17.7136
ltibia 13.6412
lfoot -11.729 12.5595
ltoes -18.8941
400
root 0.189709 17.4832 0.235579 3.87911 1.92384 -0.0545016
lowerback -2.56217 -0.745979 -2.15453
upperback -3.32007 -0.95032 1.49593
thorax -1.91309 -0.409836 2.73689
lowerneck -13.1448 -11.5095 -17.663
upperneck 21.5573 -15.7415 13.9932
head 11.8171 -7.24794 5.57436
rclavicle -3.95085e-015 8.74653e-015
rhumerus 21.31 42.8132 -54.0857
rradius 110.404
rwrist -6.58101
rhand -15.8774 15.8388
rfingers 7.12502
rthumb 10.3184 -13.8881
lclavicle -3.95085e-015 8.74653e-015
lhumerus 80.5911 -65.4045 -19.5629
lradius 98.4201
lwrist 24.5004
lhand 9.21415 17.9278
lfingers 7.12502
lthumb 34.3806 44.6262
rfemur 0 0 0
rtibia 0
rfoot 0 0
rtoes 0
lfemur -5.55961 -18.3806 -17.8185
ltibia 13.6197
lfoot -11.8069 12.6055
ltoes -18.8922
401
root 0.190709 17.4824 0.233754 3.87499 1.73788 -0.130176
lowerback -2.43042 -0.719973 -2.07124
upperback -3.36451 -0.918637 1.49986
thorax -2.03577 -0.393545 2.69672
lowerneck -13.0908 -11.502 -17.7149
upperneck 21.4627 -15.7956 14.2725
head 11.8143 -7.25231 5.67986
rclavicle -7.45443e-017 -1.59028e-014
rhumerus 21.1794 42.0231 -54.4782
rradius 108.21
rwrist -6.57853
rhand -16.1596 15.9371
rfingers 7.12502
rthumb 10.0462 -13.8032
lclavicle -7.45443e-017 -1.59028e-014
lhumerus 83.375 -65.9756 -22.5693
lradius 100.56
lwrist 23.482
lhand 10.5293 17.6338
lfingers 7.12502
lthumb 35.6282 44.0408
rfemur 0 0 0
rtibia 0
rfoot 0 0
rtoes 0
lfemur -5.47892 -18.1924 -17.7771
ltibia 13.5501
lfoot -11.8535 12.609
ltoes -18.8591
402
root 0.192758 17.4811 0.230654 3.86493 1.55098 -0.0897755
lowerback -2.32574 -0.686041 -2.11991
upperback -3.3725 -0.875183 1.47213
thorax -2.10524 -0.370004 2.69736
lowerneck -13.0945 -11.5357 -17.7508
upperneck 21.4159 -15.8998 14.5147
head 11.8459 -7.27837 5.75696
rclavicle 1.59773e-014 -1.51076e-014
rhumerus 21.2432 41.452 -54.5791
rradius 105.905
rwrist -6.64256
rhand -15.9669 16.1408
rfingers 7.12502
rthumb 10.2321 -13.5903
lclavicle 1.59773e-014 -1.51076e-014
lhumerus 85.5492 -66.4321 -24.824
lradius 102.924
lwrist 23.1298
lhand 10.5315 16.8331
lfingers 7.12502
lthumb 35.6303 43.2396
rfemur 0 0 0
rtibia 0
rfoot 0 0
rtoes 0
lfemur -5.39708 -18.0129 -17.8676
ltibia 13.4852
lfoot -12.0069 12.5218
ltoes -17.9482
403
root 0.194655 17.4822 0.227738 3.8654 1.37811 -0.0474885
lowerback -2.31421 -0.643312 -2.24793
upperback -3.34102 -0.817112 1.49432
thorax -2.08125 -0.338483 2.79252
lowerneck -13.0939 -11.5883 -17.8669
upperneck 21.3413 -16.0051 14.746
head 11.8734 -7.31252 5.8416
rclavicle -9.19379e-016 3.97569e-016
rhumerus 21.4089 41.083 -54.337
rradius 103.66
rwrist -6.52225
rhand -15.2914 15.8584
rfingers 7.12502
rthumb 10.8837 -13.8396
lclavicle -9.19379e-016 3.97569e-016
lhumerus 86.9523 -66.79 -26.0579
lradius 105.328
lwrist 23.323
lhand 10.3845 16.9325
lfingers 7.12502
lthumb 35.491 43.3725
rfemur 0 0 0
rtibia 0
rfoot 0 0
rtoes 0
lfemur -5.35085 -17.8474 -17.9568
ltibia 13.4521
lfoot -12.0418 12.5186
ltoes -17.8494
404
root 0.196019 17.4836 0.225545 3.8688 1.23676 -0.0410615
lowerback -2.41727 -0.589452 -2.36038
upperback -3.23715 -0.742017 1.5166
thorax -1.91991 -0.30186 2.87719
lowerneck -13.143 -11.6685 -17.8784
upperneck 21.1965 -16.1351 14.9046
head 11.8714 -7.35415 5.8719
rclavicle 1.06847e-014 -1.66979e-014
rhumerus 21.6323 40.7763 -53.9249
rradius 101.191
rwrist -5.865
rhand -14.5117 15.8891
rfingers 7.12502
rthumb 11.6357 -13.7678
lclavicle 1.06847e-014 -1.66979e-014
lhumerus 87.2007 -67.0151 -25.9393
lradius 107.586
lwrist 23.8372
lhand 10.0861 17.3546
lfingers 7.12502
lthumb 35.208 43.8618
rfemur 0 0 0
rtibia 0
rfoot 0 0
rtoes 0
lfemur -5.30765 -17.7086 -17.9976
ltibia 13.404
lfoot -11.9281 12.615
ltoes -18.6433
405
root 0.197656 17.4829 0.223576 3.85962 1.16834 -0.0743955
lowerback -2.5292 -0.53699 -2.40779
upperback -3.12578 -0.669386 1.50594
thorax -1.74693 -0.268705 2.89149
lowerneck -13.1175 -11.7392 -17.7989
upperneck 20.989 -16.2789 15.0724
head 11.8257 -7.39846 5.89002
rclavicle 6.73383e-015 -6.75868e-015
rhumerus 21.8108 40.6785 -53.4078
rradius 98.655
rwrist -4.94586
rhand -14.2034 16.3902
rfingers 7.12502
rthumb 11.933 -13.2497
lclavicle 6.73383e-015 -6.75868e-015
lhumerus 86.3793 -67.2456 -24.5853
lradius 109.665
lwrist 24.3723
lhand 9.89064 17.2316
lfingers 7.12502
lthumb 35.0226 43.7824
rfemur 0 0 0
rtibia 0
rfoot 0 0
rtoes 0
lfemur -5.27132 -17.6398 -17.9867
ltibia 13.3702
lfoot -11.8861 12.6793
ltoes -18.6774
